<?xml version="1.0" standalone="no"?>
<!DOCTYPE svg PUBLIC "-//W3C//DTD SVG 20010904//EN"
 "http://www.w3.org/TR/2001/REC-SVG-20010904/DTD/svg10.dtd">
<svg version="1.0" xmlns="http://www.w3.org/2000/svg"
 width="1191.000000pt" height="1191.000000pt" viewBox="0 0 1191.000000 1191.000000"
 preserveAspectRatio="xMidYMid meet">
<metadata>
Created by potrace 1.14, written by Peter Selinger 2001-2017
</metadata>
<g transform="translate(0.000000,1191.000000) scale(0.100000,-0.100000)"
fill="#000000" stroke="none">
<path d="M3707 10414 c-1 -1 -63 -4 -137 -8 -74 -3 -145 -8 -157 -10 -12 -3
-48 -7 -80 -11 -32 -3 -96 -13 -143 -21 -47 -9 -96 -18 -110 -20 -174 -32
-423 -116 -607 -207 -519 -255 -832 -631 -938 -1127 -45 -209 -43 -101 -44
-3647 l-1 -3363 253 0 254 0 60 103 c208 353 484 587 859 728 84 31 175 59
244 74 113 25 164 35 206 40 27 3 58 8 69 10 119 25 564 25 685 0 13 -2 42 -7
65 -11 88 -13 246 -57 343 -95 202 -80 369 -180 542 -323 327 -271 542 -605
640 -994 9 -36 15 -43 33 -40 l22 3 1 4103 0 4103 -100 103 c-116 117 -156
150 -283 234 -289 189 -676 311 -1138 357 -122 13 -528 27 -538 19z"/>
<path d="M7967 10414 c-1 -1 -63 -4 -137 -8 -131 -7 -153 -8 -270 -21 -64 -7
-71 -8 -210 -34 -152 -29 -233 -49 -375 -96 -217 -72 -450 -198 -612 -333 -63
-53 -202 -192 -216 -217 -6 -11 -13 -7496 -7 -8172 0 -39 3 -43 24 -43 20 0
25 7 31 38 26 141 139 403 239 554 252 383 660 691 1078 812 217 63 382 84
628 80 443 -6 750 -85 1108 -284 143 -80 348 -262 474 -420 54 -68 140 -194
162 -238 l17 -32 257 2 257 3 -1 3330 c0 1832 -3 3371 -7 3420 -20 263 -97
519 -218 725 -74 125 -230 303 -349 400 -151 123 -380 255 -580 334 -104 41
-318 107 -387 120 -16 3 -39 7 -53 10 -37 8 -137 27 -168 31 -15 2 -46 6 -69
9 -84 12 -119 15 -228 22 -104 7 -383 13 -388 8z"/>
</g>
</svg>
